<svg xmlns="http://www.w3.org/2000/svg" xmlns:xlink="http://www.w3.org/1999/xlink" viewBox="0,0,256,256" width="96px" height="96px" fill-rule="nonzero"><g fill="#0e1e9d" fill-rule="nonzero" stroke="none" stroke-width="1" stroke-linecap="butt" stroke-linejoin="miter" stroke-miterlimit="10" stroke-dasharray="" stroke-dashoffset="0" font-family="none" font-weight="none" font-size="none" text-anchor="none" style="mix-blend-mode: normal"><g transform="scale(4,4)"><path d="M32,10c-2.338,0 -3.69333,1.60494 -4.36133,3.08594c-3.608,0.724 -9.90069,3.87025 -10.67969,11.65625c-0.293,4.592 -0.84048,13.14159 -3.89648,14.55859c-0.212,0.098 -0.40727,0.23244 -0.57227,0.39844c-0.255,0.255 -2.49023,2.59478 -2.49023,6.30078c0,1.104 0.896,2 2,2h13.25781c0.39462,3.37293 3.26494,6 6.74219,6c3.47725,0 6.34757,-2.62707 6.74219,-6h13.25781c1.104,0 2,-0.896 2,-2c0,-3.706 -2.23523,-6.04578 -2.49023,-6.30078c-0.165,-0.165 -0.36027,-0.30139 -0.57227,-0.40039c-3.055,-1.417 -3.6043,-9.96491 -3.9043,-14.62891c-0.775,-7.724 -7.06683,-10.86294 -10.67383,-11.58594c-0.667,-1.48 -2.02137,-3.08398 -4.35937,-3.08398zM32,14c0.603,0 0.76672,0.61986 0.88672,1.25586c0.177,0.935 0.9977,1.6582 1.9707,1.6582c0.074,0 7.45441,0.73598 8.19141,8.08398c0.509,7.934 1.34106,15.25275 5.78906,17.71875c0.187,0.24 0.49605,0.6842 0.74805,1.2832h-35.17188c0.253,-0.603 0.56214,-1.04625 0.74414,-1.28125c4.451,-2.464 5.28411,-9.78344 5.78711,-17.64844c0.743,-7.42 8.12327,-8.15625 8.19727,-8.15625c0.957,0 1.7918,-0.75767 1.9668,-1.63867c0.123,-0.615 0.28663,-1.27539 0.89063,-1.27539zM29.33594,48h5.32812c-0.34427,1.15233 -1.40132,2 -2.66406,2c-1.26274,0 -2.31979,-0.84767 -2.66406,-2z"></path></g></g></svg>